<?xml version="1.0" encoding="UTF-8" standalone="no"?>
<!DOCTYPE svg PUBLIC "-//W3C//DTD SVG 1.1//EN"
 "http://www.w3.org/Graphics/SVG/1.1/DTD/svg11.dtd">
<!-- Generated by graphviz version 7.1.0 (20230121.1956)
 -->
<!-- Pages: 1 -->
<svg width="525pt" height="548pt"
 viewBox="0.00 0.00 524.57 548.00" xmlns="http://www.w3.org/2000/svg" xmlns:xlink="http://www.w3.org/1999/xlink">
<g id="graph0" class="graph" transform="scale(1 1) rotate(0) translate(4 544)">
<polygon fill="white" stroke="none" points="-4,4 -4,-544 520.57,-544 520.57,4 -4,4"/>
<!-- [root] aci_application_epg.epg (expand) -->
<g id="node1" class="node">
<title>[root] aci_application_epg.epg (expand)</title>
<polygon fill="none" stroke="black" points="265.78,-396 116.78,-396 116.78,-360 265.78,-360 265.78,-396"/>
<text text-anchor="middle" x="191.28" y="-374.3" font-family="Times,serif" font-size="14.00">aci_application_epg.epg</text>
</g>
<!-- [root] aci_application_profile.ap (expand) -->
<g id="node2" class="node">
<title>[root] aci_application_profile.ap (expand)</title>
<polygon fill="none" stroke="black" points="270.28,-252 112.28,-252 112.28,-216 270.28,-216 270.28,-252"/>
<text text-anchor="middle" x="191.28" y="-230.3" font-family="Times,serif" font-size="14.00">aci_application_profile.ap</text>
</g>
<!-- [root] aci_application_epg.epg (expand)&#45;&gt;[root] aci_application_profile.ap (expand) -->
<g id="edge1" class="edge">
<title>[root] aci_application_epg.epg (expand)&#45;&gt;[root] aci_application_profile.ap (expand)</title>
<path fill="none" stroke="black" d="M191.28,-359.59C191.28,-335.61 191.28,-292.14 191.28,-263.42"/>
<polygon fill="black" stroke="black" points="194.78,-263.62 191.28,-253.62 187.78,-263.62 194.78,-263.62"/>
</g>
<!-- [root] aci_bridge_domain.bd (expand) -->
<g id="node3" class="node">
<title>[root] aci_bridge_domain.bd (expand)</title>
<polygon fill="none" stroke="black" points="394.78,-324 255.78,-324 255.78,-288 394.78,-288 394.78,-324"/>
<text text-anchor="middle" x="325.28" y="-302.3" font-family="Times,serif" font-size="14.00">aci_bridge_domain.bd</text>
</g>
<!-- [root] aci_application_epg.epg (expand)&#45;&gt;[root] aci_bridge_domain.bd (expand) -->
<g id="edge2" class="edge">
<title>[root] aci_application_epg.epg (expand)&#45;&gt;[root] aci_bridge_domain.bd (expand)</title>
<path fill="none" stroke="black" d="M224.75,-359.52C242.15,-350.43 263.61,-339.22 282.23,-329.49"/>
<polygon fill="black" stroke="black" points="283.66,-332.69 290.9,-324.96 280.42,-326.49 283.66,-332.69"/>
</g>
<!-- [root] aci_tenant.tenant (expand) -->
<g id="node5" class="node">
<title>[root] aci_tenant.tenant (expand)</title>
<polygon fill="none" stroke="black" points="312.78,-180 203.78,-180 203.78,-144 312.78,-144 312.78,-180"/>
<text text-anchor="middle" x="258.28" y="-158.3" font-family="Times,serif" font-size="14.00">aci_tenant.tenant</text>
</g>
<!-- [root] aci_application_profile.ap (expand)&#45;&gt;[root] aci_tenant.tenant (expand) -->
<g id="edge3" class="edge">
<title>[root] aci_application_profile.ap (expand)&#45;&gt;[root] aci_tenant.tenant (expand)</title>
<path fill="none" stroke="black" d="M207.84,-215.7C215.72,-207.47 225.28,-197.48 233.95,-188.42"/>
<polygon fill="black" stroke="black" points="236.48,-190.84 240.87,-181.2 231.42,-186 236.48,-190.84"/>
</g>
<!-- [root] aci_vrf.vrf (expand) -->
<g id="node6" class="node">
<title>[root] aci_vrf.vrf (expand)</title>
<polygon fill="none" stroke="black" points="362.28,-252 288.28,-252 288.28,-216 362.28,-216 362.28,-252"/>
<text text-anchor="middle" x="325.28" y="-230.3" font-family="Times,serif" font-size="14.00">aci_vrf.vrf</text>
</g>
<!-- [root] aci_bridge_domain.bd (expand)&#45;&gt;[root] aci_vrf.vrf (expand) -->
<g id="edge4" class="edge">
<title>[root] aci_bridge_domain.bd (expand)&#45;&gt;[root] aci_vrf.vrf (expand)</title>
<path fill="none" stroke="black" d="M325.28,-287.7C325.28,-280.41 325.28,-271.73 325.28,-263.54"/>
<polygon fill="black" stroke="black" points="328.78,-263.62 325.28,-253.62 321.78,-263.62 328.78,-263.62"/>
</g>
<!-- [root] aci_subnet.subnet (expand) -->
<g id="node4" class="node">
<title>[root] aci_subnet.subnet (expand)</title>
<polygon fill="none" stroke="black" points="396.78,-396 283.78,-396 283.78,-360 396.78,-360 396.78,-396"/>
<text text-anchor="middle" x="340.28" y="-374.3" font-family="Times,serif" font-size="14.00">aci_subnet.subnet</text>
</g>
<!-- [root] aci_subnet.subnet (expand)&#45;&gt;[root] aci_bridge_domain.bd (expand) -->
<g id="edge5" class="edge">
<title>[root] aci_subnet.subnet (expand)&#45;&gt;[root] aci_bridge_domain.bd (expand)</title>
<path fill="none" stroke="black" d="M336.58,-359.7C335,-352.32 333.11,-343.52 331.34,-335.25"/>
<polygon fill="black" stroke="black" points="334.78,-334.63 329.27,-325.58 327.94,-336.1 334.78,-334.63"/>
</g>
<!-- [root] provider[&quot;registry.terraform.io/ciscodevnet/aci&quot;] -->
<g id="node7" class="node">
<title>[root] provider[&quot;registry.terraform.io/ciscodevnet/aci&quot;]</title>
<polygon fill="none" stroke="black" points="258.28,-108 0.22,-90 258.28,-72 516.35,-90 258.28,-108"/>
<text text-anchor="middle" x="258.28" y="-86.3" font-family="Times,serif" font-size="14.00">provider[&quot;registry.terraform.io/ciscodevnet/aci&quot;]</text>
</g>
<!-- [root] aci_tenant.tenant (expand)&#45;&gt;[root] provider[&quot;registry.terraform.io/ciscodevnet/aci&quot;] -->
<g id="edge6" class="edge">
<title>[root] aci_tenant.tenant (expand)&#45;&gt;[root] provider[&quot;registry.terraform.io/ciscodevnet/aci&quot;]</title>
<path fill="none" stroke="black" d="M258.28,-143.7C258.28,-136.41 258.28,-127.73 258.28,-119.54"/>
<polygon fill="black" stroke="black" points="261.78,-119.62 258.28,-109.62 254.78,-119.62 261.78,-119.62"/>
</g>
<!-- [root] aci_vrf.vrf (expand)&#45;&gt;[root] aci_tenant.tenant (expand) -->
<g id="edge7" class="edge">
<title>[root] aci_vrf.vrf (expand)&#45;&gt;[root] aci_tenant.tenant (expand)</title>
<path fill="none" stroke="black" d="M308.72,-215.7C300.85,-207.47 291.29,-197.48 282.61,-188.42"/>
<polygon fill="black" stroke="black" points="285.14,-186 275.7,-181.2 280.09,-190.84 285.14,-186"/>
</g>
<!-- [root] var.user -->
<g id="node8" class="node">
<title>[root] var.user</title>
<polygon fill="none" stroke="black" points="281.78,-36 228.78,-36 228.78,0 287.78,0 287.78,-30 281.78,-36"/>
<polyline fill="none" stroke="black" points="281.78,-36 281.78,-30"/>
<polyline fill="none" stroke="black" points="287.78,-30 281.78,-30"/>
<text text-anchor="middle" x="258.28" y="-14.3" font-family="Times,serif" font-size="14.00">var.user</text>
</g>
<!-- [root] provider[&quot;registry.terraform.io/ciscodevnet/aci&quot;]&#45;&gt;[root] var.user -->
<g id="edge10" class="edge">
<title>[root] provider[&quot;registry.terraform.io/ciscodevnet/aci&quot;]&#45;&gt;[root] var.user</title>
<path fill="none" stroke="black" d="M258.28,-71.7C258.28,-64.41 258.28,-55.73 258.28,-47.54"/>
<polygon fill="black" stroke="black" points="261.78,-47.62 258.28,-37.62 254.78,-47.62 261.78,-47.62"/>
</g>
<!-- [root] provider[&quot;registry.terraform.io/ciscodevnet/aci&quot;] (close) -->
<g id="node9" class="node">
<title>[root] provider[&quot;registry.terraform.io/ciscodevnet/aci&quot;] (close)</title>
<ellipse fill="none" stroke="black" cx="265.28" cy="-450" rx="231.26" ry="18"/>
<text text-anchor="middle" x="265.28" y="-446.3" font-family="Times,serif" font-size="14.00">[root] provider[&quot;registry.terraform.io/ciscodevnet/aci&quot;] (close)</text>
</g>
<!-- [root] provider[&quot;registry.terraform.io/ciscodevnet/aci&quot;] (close)&#45;&gt;[root] aci_application_epg.epg (expand) -->
<g id="edge8" class="edge">
<title>[root] provider[&quot;registry.terraform.io/ciscodevnet/aci&quot;] (close)&#45;&gt;[root] aci_application_epg.epg (expand)</title>
<path fill="none" stroke="black" d="M246.99,-431.7C238.19,-423.37 227.46,-413.22 217.78,-404.07"/>
<polygon fill="black" stroke="black" points="220.39,-401.72 210.72,-397.39 215.58,-406.8 220.39,-401.72"/>
</g>
<!-- [root] provider[&quot;registry.terraform.io/ciscodevnet/aci&quot;] (close)&#45;&gt;[root] aci_subnet.subnet (expand) -->
<g id="edge9" class="edge">
<title>[root] provider[&quot;registry.terraform.io/ciscodevnet/aci&quot;] (close)&#45;&gt;[root] aci_subnet.subnet (expand)</title>
<path fill="none" stroke="black" d="M283.82,-431.7C292.75,-423.37 303.62,-413.22 313.42,-404.07"/>
<polygon fill="black" stroke="black" points="315.67,-406.76 320.59,-397.38 310.89,-401.64 315.67,-406.76"/>
</g>
<!-- [root] root -->
<g id="node10" class="node">
<title>[root] root</title>
<ellipse fill="none" stroke="black" cx="265.28" cy="-522" rx="47.39" ry="18"/>
<text text-anchor="middle" x="265.28" y="-518.3" font-family="Times,serif" font-size="14.00">[root] root</text>
</g>
<!-- [root] root&#45;&gt;[root] provider[&quot;registry.terraform.io/ciscodevnet/aci&quot;] (close) -->
<g id="edge11" class="edge">
<title>[root] root&#45;&gt;[root] provider[&quot;registry.terraform.io/ciscodevnet/aci&quot;] (close)</title>
<path fill="none" stroke="black" d="M265.28,-503.7C265.28,-496.41 265.28,-487.73 265.28,-479.54"/>
<polygon fill="black" stroke="black" points="268.78,-479.62 265.28,-469.62 261.78,-479.62 268.78,-479.62"/>
</g>
</g>
</svg>
