<?xml version="1.0" encoding="UTF-8" standalone="no"?>
<!DOCTYPE svg PUBLIC "-//W3C//DTD SVG 1.1//EN"
 "http://www.w3.org/Graphics/SVG/1.1/DTD/svg11.dtd">
<!-- Generated by graphviz version 7.1.0 (20230121.1956)
 -->
<!-- Pages: 1 -->
<svg width="971pt" height="620pt"
 viewBox="0.00 0.00 970.50 620.00" xmlns="http://www.w3.org/2000/svg" xmlns:xlink="http://www.w3.org/1999/xlink">
<g id="graph0" class="graph" transform="scale(1 1) rotate(0) translate(4 616)">
<polygon fill="white" stroke="none" points="-4,4 -4,-616 966.5,-616 966.5,4 -4,4"/>
<!-- [root] aci_application_epg.epgs (expand) -->
<g id="node1" class="node">
<title>[root] aci_application_epg.epgs (expand)</title>
<polygon fill="none" stroke="black" points="831,-396 677,-396 677,-360 831,-360 831,-396"/>
<text text-anchor="middle" x="754" y="-374.3" font-family="Times,serif" font-size="14.00">aci_application_epg.epgs</text>
</g>
<!-- [root] aci_application_profile.ap (expand) -->
<g id="node2" class="node">
<title>[root] aci_application_profile.ap (expand)</title>
<polygon fill="none" stroke="black" points="731,-324 573,-324 573,-288 731,-288 731,-324"/>
<text text-anchor="middle" x="652" y="-302.3" font-family="Times,serif" font-size="14.00">aci_application_profile.ap</text>
</g>
<!-- [root] aci_application_epg.epgs (expand)&#45;&gt;[root] aci_application_profile.ap (expand) -->
<g id="edge1" class="edge">
<title>[root] aci_application_epg.epgs (expand)&#45;&gt;[root] aci_application_profile.ap (expand)</title>
<path fill="none" stroke="black" d="M728.52,-359.52C715.77,-350.76 700.15,-340.04 686.35,-330.58"/>
<polygon fill="black" stroke="black" points="688.62,-327.89 678.4,-325.12 684.66,-333.66 688.62,-327.89"/>
</g>
<!-- [root] aci_bridge_domain.bridge_domains (expand) -->
<g id="node3" class="node">
<title>[root] aci_bridge_domain.bridge_domains (expand)</title>
<polygon fill="none" stroke="black" points="962.5,-324 749.5,-324 749.5,-288 962.5,-288 962.5,-324"/>
<text text-anchor="middle" x="856" y="-302.3" font-family="Times,serif" font-size="14.00">aci_bridge_domain.bridge_domains</text>
</g>
<!-- [root] aci_application_epg.epgs (expand)&#45;&gt;[root] aci_bridge_domain.bridge_domains (expand) -->
<g id="edge2" class="edge">
<title>[root] aci_application_epg.epgs (expand)&#45;&gt;[root] aci_bridge_domain.bridge_domains (expand)</title>
<path fill="none" stroke="black" d="M779.48,-359.52C792.23,-350.76 807.85,-340.04 821.65,-330.58"/>
<polygon fill="black" stroke="black" points="823.34,-333.66 829.6,-325.12 819.38,-327.89 823.34,-333.66"/>
</g>
<!-- [root] var.epgs -->
<g id="node16" class="node">
<title>[root] var.epgs</title>
<polygon fill="none" stroke="black" points="549,-324 493,-324 493,-288 555,-288 555,-318 549,-324"/>
<polyline fill="none" stroke="black" points="549,-324 549,-318"/>
<polyline fill="none" stroke="black" points="555,-318 549,-318"/>
<text text-anchor="middle" x="524" y="-302.3" font-family="Times,serif" font-size="14.00">var.epgs</text>
</g>
<!-- [root] aci_application_epg.epgs (expand)&#45;&gt;[root] var.epgs -->
<g id="edge3" class="edge">
<title>[root] aci_application_epg.epgs (expand)&#45;&gt;[root] var.epgs</title>
<path fill="none" stroke="black" d="M682.94,-359.52C649.7,-350.8 609.47,-339.47 566.08,-324.53"/>
<polygon fill="black" stroke="black" points="567.32,-321.25 556.72,-321.25 565.01,-327.86 567.32,-321.25"/>
</g>
<!-- [root] aci_tenant.tenant (expand) -->
<g id="node10" class="node">
<title>[root] aci_tenant.tenant (expand)</title>
<polygon fill="none" stroke="black" points="519.5,-180 410.5,-180 410.5,-144 519.5,-144 519.5,-180"/>
<text text-anchor="middle" x="465" y="-158.3" font-family="Times,serif" font-size="14.00">aci_tenant.tenant</text>
</g>
<!-- [root] aci_application_profile.ap (expand)&#45;&gt;[root] aci_tenant.tenant (expand) -->
<g id="edge4" class="edge">
<title>[root] aci_application_profile.ap (expand)&#45;&gt;[root] aci_tenant.tenant (expand)</title>
<path fill="none" stroke="black" d="M629.07,-287.59C595.89,-262.4 534.38,-215.68 496.82,-187.17"/>
<polygon fill="black" stroke="black" points="499.11,-184.51 489.03,-181.25 494.88,-190.08 499.11,-184.51"/>
</g>
<!-- [root] var.ap -->
<g id="node13" class="node">
<title>[root] var.ap</title>
<polygon fill="none" stroke="black" points="673,-252 625,-252 625,-216 679,-216 679,-246 673,-252"/>
<polyline fill="none" stroke="black" points="673,-252 673,-246"/>
<polyline fill="none" stroke="black" points="679,-246 673,-246"/>
<text text-anchor="middle" x="652" y="-230.3" font-family="Times,serif" font-size="14.00">var.ap</text>
</g>
<!-- [root] aci_application_profile.ap (expand)&#45;&gt;[root] var.ap -->
<g id="edge5" class="edge">
<title>[root] aci_application_profile.ap (expand)&#45;&gt;[root] var.ap</title>
<path fill="none" stroke="black" d="M652,-287.7C652,-280.41 652,-271.73 652,-263.54"/>
<polygon fill="black" stroke="black" points="655.5,-263.62 652,-253.62 648.5,-263.62 655.5,-263.62"/>
</g>
<!-- [root] aci_vrf.vrf (expand) -->
<g id="node11" class="node">
<title>[root] aci_vrf.vrf (expand)</title>
<polygon fill="none" stroke="black" points="773,-252 699,-252 699,-216 773,-216 773,-252"/>
<text text-anchor="middle" x="736" y="-230.3" font-family="Times,serif" font-size="14.00">aci_vrf.vrf</text>
</g>
<!-- [root] aci_bridge_domain.bridge_domains (expand)&#45;&gt;[root] aci_vrf.vrf (expand) -->
<g id="edge6" class="edge">
<title>[root] aci_bridge_domain.bridge_domains (expand)&#45;&gt;[root] aci_vrf.vrf (expand)</title>
<path fill="none" stroke="black" d="M826.03,-287.52C810.74,-278.6 791.94,-267.63 775.48,-258.03"/>
<polygon fill="black" stroke="black" points="777.3,-255.04 766.9,-253.02 773.77,-261.09 777.3,-255.04"/>
</g>
<!-- [root] var.bridge_domains -->
<g id="node14" class="node">
<title>[root] var.bridge_domains</title>
<polygon fill="none" stroke="black" points="912.5,-252 793.5,-252 793.5,-216 918.5,-216 918.5,-246 912.5,-252"/>
<polyline fill="none" stroke="black" points="912.5,-252 912.5,-246"/>
<polyline fill="none" stroke="black" points="918.5,-246 912.5,-246"/>
<text text-anchor="middle" x="856" y="-230.3" font-family="Times,serif" font-size="14.00">var.bridge_domains</text>
</g>
<!-- [root] aci_bridge_domain.bridge_domains (expand)&#45;&gt;[root] var.bridge_domains -->
<g id="edge7" class="edge">
<title>[root] aci_bridge_domain.bridge_domains (expand)&#45;&gt;[root] var.bridge_domains</title>
<path fill="none" stroke="black" d="M856,-287.7C856,-280.41 856,-271.73 856,-263.54"/>
<polygon fill="black" stroke="black" points="859.5,-263.62 856,-253.62 852.5,-263.62 859.5,-263.62"/>
</g>
<!-- [root] aci_contract.contracts (expand) -->
<g id="node4" class="node">
<title>[root] aci_contract.contracts (expand)</title>
<polygon fill="none" stroke="black" points="370.5,-396 235.5,-396 235.5,-360 370.5,-360 370.5,-396"/>
<text text-anchor="middle" x="303" y="-374.3" font-family="Times,serif" font-size="14.00">aci_contract.contracts</text>
</g>
<!-- [root] aci_contract.contracts (expand)&#45;&gt;[root] aci_tenant.tenant (expand) -->
<g id="edge8" class="edge">
<title>[root] aci_contract.contracts (expand)&#45;&gt;[root] aci_tenant.tenant (expand)</title>
<path fill="none" stroke="black" d="M321.63,-359.59C331.93,-349.59 344.69,-336.55 355,-324 391.64,-279.39 428.28,-222.76 448.66,-189.93"/>
<polygon fill="black" stroke="black" points="451.63,-191.79 453.89,-181.44 445.67,-188.12 451.63,-191.79"/>
</g>
<!-- [root] var.contracts -->
<g id="node15" class="node">
<title>[root] var.contracts</title>
<polygon fill="none" stroke="black" points="340,-324 260,-324 260,-288 346,-288 346,-318 340,-324"/>
<polyline fill="none" stroke="black" points="340,-324 340,-318"/>
<polyline fill="none" stroke="black" points="346,-318 340,-318"/>
<text text-anchor="middle" x="303" y="-302.3" font-family="Times,serif" font-size="14.00">var.contracts</text>
</g>
<!-- [root] aci_contract.contracts (expand)&#45;&gt;[root] var.contracts -->
<g id="edge9" class="edge">
<title>[root] aci_contract.contracts (expand)&#45;&gt;[root] var.contracts</title>
<path fill="none" stroke="black" d="M303,-359.7C303,-352.41 303,-343.73 303,-335.54"/>
<polygon fill="black" stroke="black" points="306.5,-335.62 303,-325.62 299.5,-335.62 306.5,-335.62"/>
</g>
<!-- [root] aci_contract_subject.contract_subjects (expand) -->
<g id="node5" class="node">
<title>[root] aci_contract_subject.contract_subjects (expand)</title>
<polygon fill="none" stroke="black" points="415.5,-468 190.5,-468 190.5,-432 415.5,-432 415.5,-468"/>
<text text-anchor="middle" x="303" y="-446.3" font-family="Times,serif" font-size="14.00">aci_contract_subject.contract_subjects</text>
</g>
<!-- [root] aci_contract_subject.contract_subjects (expand)&#45;&gt;[root] aci_contract.contracts (expand) -->
<g id="edge10" class="edge">
<title>[root] aci_contract_subject.contract_subjects (expand)&#45;&gt;[root] aci_contract.contracts (expand)</title>
<path fill="none" stroke="black" d="M303,-431.7C303,-424.41 303,-415.73 303,-407.54"/>
<polygon fill="black" stroke="black" points="306.5,-407.62 303,-397.62 299.5,-407.62 306.5,-407.62"/>
</g>
<!-- [root] aci_filter.filters (expand) -->
<g id="node7" class="node">
<title>[root] aci_filter.filters (expand)</title>
<polygon fill="none" stroke="black" points="217,-396 117,-396 117,-360 217,-360 217,-396"/>
<text text-anchor="middle" x="167" y="-374.3" font-family="Times,serif" font-size="14.00">aci_filter.filters</text>
</g>
<!-- [root] aci_contract_subject.contract_subjects (expand)&#45;&gt;[root] aci_filter.filters (expand) -->
<g id="edge11" class="edge">
<title>[root] aci_contract_subject.contract_subjects (expand)&#45;&gt;[root] aci_filter.filters (expand)</title>
<path fill="none" stroke="black" d="M269.03,-431.52C251.37,-422.43 229.59,-411.22 210.69,-401.49"/>
<polygon fill="black" stroke="black" points="212.37,-398.42 201.88,-396.95 209.17,-404.64 212.37,-398.42"/>
</g>
<!-- [root] aci_epg_to_contract.epg_contracts (expand) -->
<g id="node6" class="node">
<title>[root] aci_epg_to_contract.epg_contracts (expand)</title>
<polygon fill="none" stroke="black" points="638.5,-468 433.5,-468 433.5,-432 638.5,-432 638.5,-468"/>
<text text-anchor="middle" x="536" y="-446.3" font-family="Times,serif" font-size="14.00">aci_epg_to_contract.epg_contracts</text>
</g>
<!-- [root] aci_epg_to_contract.epg_contracts (expand)&#45;&gt;[root] aci_application_epg.epgs (expand) -->
<g id="edge12" class="edge">
<title>[root] aci_epg_to_contract.epg_contracts (expand)&#45;&gt;[root] aci_application_epg.epgs (expand)</title>
<path fill="none" stroke="black" d="M590.45,-431.52C620.34,-421.92 657.62,-409.95 689.02,-399.86"/>
<polygon fill="black" stroke="black" points="689.98,-403.23 698.43,-396.84 687.84,-396.57 689.98,-403.23"/>
</g>
<!-- [root] aci_epg_to_contract.epg_contracts (expand)&#45;&gt;[root] aci_contract.contracts (expand) -->
<g id="edge13" class="edge">
<title>[root] aci_epg_to_contract.epg_contracts (expand)&#45;&gt;[root] aci_contract.contracts (expand)</title>
<path fill="none" stroke="black" d="M477.81,-431.52C445.57,-421.83 405.32,-409.74 371.57,-399.6"/>
<polygon fill="black" stroke="black" points="372.89,-396.34 362.31,-396.82 370.88,-403.05 372.89,-396.34"/>
</g>
<!-- [root] local.epg_contracts (expand) -->
<g id="node20" class="node">
<title>[root] local.epg_contracts (expand)</title>
<ellipse fill="none" stroke="black" cx="524" cy="-378" rx="135.38" ry="18"/>
<text text-anchor="middle" x="524" y="-374.3" font-family="Times,serif" font-size="14.00">[root] local.epg_contracts (expand)</text>
</g>
<!-- [root] aci_epg_to_contract.epg_contracts (expand)&#45;&gt;[root] local.epg_contracts (expand) -->
<g id="edge14" class="edge">
<title>[root] aci_epg_to_contract.epg_contracts (expand)&#45;&gt;[root] local.epg_contracts (expand)</title>
<path fill="none" stroke="black" d="M533.03,-431.7C531.77,-424.32 530.26,-415.52 528.84,-407.25"/>
<polygon fill="black" stroke="black" points="532.33,-406.86 527.19,-397.6 525.43,-408.04 532.33,-406.86"/>
</g>
<!-- [root] aci_filter.filters (expand)&#45;&gt;[root] aci_tenant.tenant (expand) -->
<g id="edge15" class="edge">
<title>[root] aci_filter.filters (expand)&#45;&gt;[root] aci_tenant.tenant (expand)</title>
<path fill="none" stroke="black" d="M180.89,-359.53C196.59,-340.48 223.55,-309.81 251,-288 304.13,-245.78 373.02,-208.14 418.08,-185.46"/>
<polygon fill="black" stroke="black" points="419.42,-188.7 426.81,-181.11 416.3,-182.44 419.42,-188.7"/>
</g>
<!-- [root] var.filters -->
<g id="node17" class="node">
<title>[root] var.filters</title>
<polygon fill="none" stroke="black" points="195,-324 133,-324 133,-288 201,-288 201,-318 195,-324"/>
<polyline fill="none" stroke="black" points="195,-324 195,-318"/>
<polyline fill="none" stroke="black" points="201,-318 195,-318"/>
<text text-anchor="middle" x="167" y="-302.3" font-family="Times,serif" font-size="14.00">var.filters</text>
</g>
<!-- [root] aci_filter.filters (expand)&#45;&gt;[root] var.filters -->
<g id="edge16" class="edge">
<title>[root] aci_filter.filters (expand)&#45;&gt;[root] var.filters</title>
<path fill="none" stroke="black" d="M167,-359.7C167,-352.41 167,-343.73 167,-335.54"/>
<polygon fill="black" stroke="black" points="170.5,-335.62 167,-325.62 163.5,-335.62 170.5,-335.62"/>
</g>
<!-- [root] aci_filter_entry.filter_entries (expand) -->
<g id="node8" class="node">
<title>[root] aci_filter_entry.filter_entries (expand)</title>
<polygon fill="none" stroke="black" points="172,-468 0,-468 0,-432 172,-432 172,-468"/>
<text text-anchor="middle" x="86" y="-446.3" font-family="Times,serif" font-size="14.00">aci_filter_entry.filter_entries</text>
</g>
<!-- [root] aci_filter_entry.filter_entries (expand)&#45;&gt;[root] aci_filter.filters (expand) -->
<g id="edge17" class="edge">
<title>[root] aci_filter_entry.filter_entries (expand)&#45;&gt;[root] aci_filter.filters (expand)</title>
<path fill="none" stroke="black" d="M106.02,-431.7C115.76,-423.28 127.64,-413.02 138.31,-403.79"/>
<polygon fill="black" stroke="black" points="140.5,-406.52 145.78,-397.34 135.93,-401.23 140.5,-406.52"/>
</g>
<!-- [root] aci_subnet.subnets (expand) -->
<g id="node9" class="node">
<title>[root] aci_subnet.subnets (expand)</title>
<polygon fill="none" stroke="black" points="846.5,-468 727.5,-468 727.5,-432 846.5,-432 846.5,-468"/>
<text text-anchor="middle" x="787" y="-446.3" font-family="Times,serif" font-size="14.00">aci_subnet.subnets</text>
</g>
<!-- [root] aci_subnet.subnets (expand)&#45;&gt;[root] aci_bridge_domain.bridge_domains (expand) -->
<g id="edge18" class="edge">
<title>[root] aci_subnet.subnets (expand)&#45;&gt;[root] aci_bridge_domain.bridge_domains (expand)</title>
<path fill="none" stroke="black" d="M810.13,-431.5C820.87,-422.14 832.83,-409.72 840,-396 849.74,-377.37 853.67,-353.88 855.2,-335.72"/>
<polygon fill="black" stroke="black" points="858.68,-336.09 855.81,-325.89 851.69,-335.65 858.68,-336.09"/>
</g>
<!-- [root] provider[&quot;registry.terraform.io/ciscodevnet/aci&quot;] -->
<g id="node12" class="node">
<title>[root] provider[&quot;registry.terraform.io/ciscodevnet/aci&quot;]</title>
<polygon fill="none" stroke="black" points="465,-108 206.93,-90 465,-72 723.07,-90 465,-108"/>
<text text-anchor="middle" x="465" y="-86.3" font-family="Times,serif" font-size="14.00">provider[&quot;registry.terraform.io/ciscodevnet/aci&quot;]</text>
</g>
<!-- [root] aci_tenant.tenant (expand)&#45;&gt;[root] provider[&quot;registry.terraform.io/ciscodevnet/aci&quot;] -->
<g id="edge19" class="edge">
<title>[root] aci_tenant.tenant (expand)&#45;&gt;[root] provider[&quot;registry.terraform.io/ciscodevnet/aci&quot;]</title>
<path fill="none" stroke="black" d="M465,-143.7C465,-136.41 465,-127.73 465,-119.54"/>
<polygon fill="black" stroke="black" points="468.5,-119.62 465,-109.62 461.5,-119.62 468.5,-119.62"/>
</g>
<!-- [root] aci_vrf.vrf (expand)&#45;&gt;[root] aci_tenant.tenant (expand) -->
<g id="edge20" class="edge">
<title>[root] aci_vrf.vrf (expand)&#45;&gt;[root] aci_tenant.tenant (expand)</title>
<path fill="none" stroke="black" d="M698.66,-219.34C695.07,-218.16 691.48,-217.03 688,-216 635.75,-200.59 575.61,-186.5 530.96,-176.73"/>
<polygon fill="black" stroke="black" points="531.95,-173.37 521.44,-174.66 530.47,-180.21 531.95,-173.37"/>
</g>
<!-- [root] var.vrf -->
<g id="node19" class="node">
<title>[root] var.vrf</title>
<polygon fill="none" stroke="black" points="757,-180 709,-180 709,-144 763,-144 763,-174 757,-180"/>
<polyline fill="none" stroke="black" points="757,-180 757,-174"/>
<polyline fill="none" stroke="black" points="763,-174 757,-174"/>
<text text-anchor="middle" x="736" y="-158.3" font-family="Times,serif" font-size="14.00">var.vrf</text>
</g>
<!-- [root] aci_vrf.vrf (expand)&#45;&gt;[root] var.vrf -->
<g id="edge21" class="edge">
<title>[root] aci_vrf.vrf (expand)&#45;&gt;[root] var.vrf</title>
<path fill="none" stroke="black" d="M736,-215.7C736,-208.41 736,-199.73 736,-191.54"/>
<polygon fill="black" stroke="black" points="739.5,-191.62 736,-181.62 732.5,-191.62 739.5,-191.62"/>
</g>
<!-- [root] var.user -->
<g id="node18" class="node">
<title>[root] var.user</title>
<polygon fill="none" stroke="black" points="488.5,-36 435.5,-36 435.5,0 494.5,0 494.5,-30 488.5,-36"/>
<polyline fill="none" stroke="black" points="488.5,-36 488.5,-30"/>
<polyline fill="none" stroke="black" points="494.5,-30 488.5,-30"/>
<text text-anchor="middle" x="465" y="-14.3" font-family="Times,serif" font-size="14.00">var.user</text>
</g>
<!-- [root] provider[&quot;registry.terraform.io/ciscodevnet/aci&quot;]&#45;&gt;[root] var.user -->
<g id="edge27" class="edge">
<title>[root] provider[&quot;registry.terraform.io/ciscodevnet/aci&quot;]&#45;&gt;[root] var.user</title>
<path fill="none" stroke="black" d="M465,-71.7C465,-64.41 465,-55.73 465,-47.54"/>
<polygon fill="black" stroke="black" points="468.5,-47.62 465,-37.62 461.5,-47.62 468.5,-47.62"/>
</g>
<!-- [root] local.epg_contracts (expand)&#45;&gt;[root] var.epgs -->
<g id="edge22" class="edge">
<title>[root] local.epg_contracts (expand)&#45;&gt;[root] var.epgs</title>
<path fill="none" stroke="black" d="M524,-359.7C524,-352.41 524,-343.73 524,-335.54"/>
<polygon fill="black" stroke="black" points="527.5,-335.62 524,-325.62 520.5,-335.62 527.5,-335.62"/>
</g>
<!-- [root] provider[&quot;registry.terraform.io/ciscodevnet/aci&quot;] (close) -->
<g id="node21" class="node">
<title>[root] provider[&quot;registry.terraform.io/ciscodevnet/aci&quot;] (close)</title>
<ellipse fill="none" stroke="black" cx="419" cy="-522" rx="231.26" ry="18"/>
<text text-anchor="middle" x="419" y="-518.3" font-family="Times,serif" font-size="14.00">[root] provider[&quot;registry.terraform.io/ciscodevnet/aci&quot;] (close)</text>
</g>
<!-- [root] provider[&quot;registry.terraform.io/ciscodevnet/aci&quot;] (close)&#45;&gt;[root] aci_contract_subject.contract_subjects (expand) -->
<g id="edge23" class="edge">
<title>[root] provider[&quot;registry.terraform.io/ciscodevnet/aci&quot;] (close)&#45;&gt;[root] aci_contract_subject.contract_subjects (expand)</title>
<path fill="none" stroke="black" d="M390.33,-503.7C375.55,-494.78 357.32,-483.78 341.35,-474.14"/>
<polygon fill="black" stroke="black" points="343.41,-471.3 333.04,-469.13 339.8,-477.29 343.41,-471.3"/>
</g>
<!-- [root] provider[&quot;registry.terraform.io/ciscodevnet/aci&quot;] (close)&#45;&gt;[root] aci_epg_to_contract.epg_contracts (expand) -->
<g id="edge24" class="edge">
<title>[root] provider[&quot;registry.terraform.io/ciscodevnet/aci&quot;] (close)&#45;&gt;[root] aci_epg_to_contract.epg_contracts (expand)</title>
<path fill="none" stroke="black" d="M447.92,-503.7C462.83,-494.78 481.21,-483.78 497.32,-474.14"/>
<polygon fill="black" stroke="black" points="498.92,-477.26 505.71,-469.12 495.33,-471.25 498.92,-477.26"/>
</g>
<!-- [root] provider[&quot;registry.terraform.io/ciscodevnet/aci&quot;] (close)&#45;&gt;[root] aci_filter_entry.filter_entries (expand) -->
<g id="edge25" class="edge">
<title>[root] provider[&quot;registry.terraform.io/ciscodevnet/aci&quot;] (close)&#45;&gt;[root] aci_filter_entry.filter_entries (expand)</title>
<path fill="none" stroke="black" d="M340.93,-504.59C292.84,-494.48 230.89,-481.46 180.1,-470.78"/>
<polygon fill="black" stroke="black" points="181.1,-467.41 170.59,-468.78 179.66,-474.26 181.1,-467.41"/>
</g>
<!-- [root] provider[&quot;registry.terraform.io/ciscodevnet/aci&quot;] (close)&#45;&gt;[root] aci_subnet.subnets (expand) -->
<g id="edge26" class="edge">
<title>[root] provider[&quot;registry.terraform.io/ciscodevnet/aci&quot;] (close)&#45;&gt;[root] aci_subnet.subnets (expand)</title>
<path fill="none" stroke="black" d="M503.89,-504.85C568.23,-492.61 655.63,-475.99 716.22,-464.46"/>
<polygon fill="black" stroke="black" points="716.55,-467.96 725.72,-462.66 715.25,-461.09 716.55,-467.96"/>
</g>
<!-- [root] root -->
<g id="node22" class="node">
<title>[root] root</title>
<ellipse fill="none" stroke="black" cx="419" cy="-594" rx="47.39" ry="18"/>
<text text-anchor="middle" x="419" y="-590.3" font-family="Times,serif" font-size="14.00">[root] root</text>
</g>
<!-- [root] root&#45;&gt;[root] provider[&quot;registry.terraform.io/ciscodevnet/aci&quot;] (close) -->
<g id="edge28" class="edge">
<title>[root] root&#45;&gt;[root] provider[&quot;registry.terraform.io/ciscodevnet/aci&quot;] (close)</title>
<path fill="none" stroke="black" d="M419,-575.7C419,-568.41 419,-559.73 419,-551.54"/>
<polygon fill="black" stroke="black" points="422.5,-551.62 419,-541.62 415.5,-551.62 422.5,-551.62"/>
</g>
</g>
</svg>
